<svg width="151" height="151" viewBox="0 0 151 151" fill="none" xmlns="http://www.w3.org/2000/svg">
<path d="M113.041 92.5759H39.3147V102.744H39.3909L39.3659 102.788L40.6289 103.512C51.8268 109.933 64.4049 113.143 76.7911 113.143C89.1761 113.143 101.37 109.931 111.785 103.508L113.012 102.752L113.007 102.744H113.041V92.5759Z" fill="#E9ACDA"/>
<path d="M47.5383 46.5899C40.2031 46.5899 34.235 52.558 34.235 59.8934C34.235 67.2282 40.2031 73.1962 47.5383 73.1962C54.8735 73.1962 60.8414 67.2282 60.8414 59.8934C60.8414 52.558 54.8735 46.5899 47.5383 46.5899ZM47.5383 81.9316C35.3861 81.9316 25.4996 72.0454 25.4996 59.8934C25.4996 47.7413 35.3861 37.8545 47.5383 37.8545C59.6907 37.8545 69.5768 47.7413 69.5768 59.8934C69.5768 72.0454 59.6907 81.9316 47.5383 81.9316Z" fill="#6DCDB7"/>
<path d="M103.464 46.5899C96.1283 46.5899 90.1603 52.558 90.1603 59.8934C90.1603 67.2282 96.1283 73.1962 103.464 73.1962C110.799 73.1962 116.767 67.2282 116.767 59.8934C116.767 52.558 110.799 46.5899 103.464 46.5899ZM103.464 81.9316C91.3116 81.9316 81.4249 72.0454 81.4249 59.8934C81.4249 47.7413 91.3116 37.8545 103.464 37.8545C115.616 37.8545 125.503 47.7413 125.503 59.8934C125.503 72.0454 115.616 81.9316 103.464 81.9316Z" fill="#6DCDB7"/>
</svg>
