<svg width="125" height="125" viewBox="0 0 125 125" fill="none" xmlns="http://www.w3.org/2000/svg">
<path d="M72.9174 32.6926L69.6537 39.3435L102.285 55.3564L105.549 48.7056L72.9174 32.6926Z" fill="#881A42"/>
<path d="M19.5222 47.7289H55.8713V40.3202H19.5222V47.7289Z" fill="#881A42"/>
<path d="M37.6969 63.0482C31.6245 63.0482 26.684 67.9886 26.684 74.0614C26.684 80.1337 31.6245 85.0741 37.6969 85.0741C43.7695 85.0741 48.7095 80.1337 48.7095 74.0614C48.7095 67.9886 43.7695 63.0482 37.6969 63.0482ZM37.6969 92.3054C27.6371 92.3054 19.4528 84.1211 19.4528 74.0614C19.4528 64.0017 27.6371 55.8169 37.6969 55.8169C47.7566 55.8169 55.9408 64.0017 55.9408 74.0614C55.9408 84.1211 47.7566 92.3054 37.6969 92.3054Z" fill="#FBC422"/>
<path d="M83.9928 63.0482C77.9205 63.0482 72.9801 67.9886 72.9801 74.0614C72.9801 80.1337 77.9205 85.0741 83.9928 85.0741C90.0652 85.0741 95.0056 80.1337 95.0056 74.0614C95.0056 67.9886 90.0652 63.0482 83.9928 63.0482ZM83.9928 92.3054C73.9332 92.3054 65.7488 84.1211 65.7488 74.0614C65.7488 64.0017 73.9332 55.8169 83.9928 55.8169C94.0525 55.8169 102.237 64.0017 102.237 74.0614C102.237 84.1211 94.0525 92.3054 83.9928 92.3054Z" fill="#FBC422"/>
</svg>
